<svg width="25" height="23" viewBox="0 0 25 23" fill="none" xmlns="http://www.w3.org/2000/svg">
<path d="M7.87596 7.2558L8.13817 7.21834L8.25447 6.98037L11.1708 1.01301C11.5227 0.312772 12.5147 0.347437 12.8301 1.00691L12.83 1.00693L12.8333 1.01344L15.7957 6.98309L15.9124 7.21834L16.1724 7.25573L22.7207 8.19759C22.7214 8.1977 22.7221 8.19781 22.7228 8.19793C23.4604 8.31313 23.7844 9.23806 23.2077 9.81698C23.2072 9.81749 23.2067 9.81799 23.2062 9.8185L18.4967 14.4382L18.3096 14.6218L18.3541 14.8801L19.4754 21.3834C19.5897 22.147 18.7562 22.732 18.0921 22.3869C18.0916 22.3867 18.0911 22.3865 18.0907 22.3862L12.2588 19.2908L12.0253 19.1669L11.7914 19.2901L5.91323 22.3862C5.91294 22.3864 5.91265 22.3865 5.91236 22.3867C5.24817 22.7323 4.41425 22.1472 4.52852 21.3835L5.64979 14.8801L5.69433 14.6218L5.50719 14.4382L0.796208 9.81697C0.219547 9.23812 0.543408 8.31333 1.28081 8.19797L7.87596 7.2558Z" fill="#F599BF" stroke="#F599BF"/>
</svg>
