<?xml version="1.0" encoding="utf-8"?>
<!-- Generator: Adobe Illustrator 27.9.0, SVG Export Plug-In . SVG Version: 6.00 Build 0)  -->
<svg version="1.1" id="Layer_1" xmlns="http://www.w3.org/2000/svg" xmlns:xlink="http://www.w3.org/1999/xlink" x="0px" y="0px"
	 viewBox="0 0 700 165" style="enable-background:new 0 0 700 165;" xml:space="preserve">
<style type="text/css">
	.st0{fill:#FFFFFF;}
	.st1{fill:#FF0070;}
	.st2{fill:#80A0F8;}
	.st3{fill:#002BFE;}
	.st4{fill:#002470;}
</style>
<g>
	<g>
		<path class="st0" d="M658.7,51.3L572,6.2c-8.4-3.7-17.2,4-14.8,12.8l28.7,92.9c2.4,8.8,11.8,10.3,19.3,3.3l56.2-46.3
			C668.5,62.4,664.9,54.1,658.7,51.3z"/>
		<circle class="st1" cx="682.5" cy="17.5" r="16.2"/>
		<g>
			<polygon class="st2" points="550.7,133 550.7,133 550.7,133 550.7,133 			"/>
			<polygon class="st2" points="598.3,94.9 576.3,100.7 582,99.2 			"/>
			<polygon class="st2" points="580.9,150.5 631.3,137.2 580.9,150.5 			"/>
			<path class="st3" d="M699.2,93.7L699.2,93.7c-3.5-13.2-17-21-30.2-17.5l-24.2,6.4l-39.6,32.6c-7.4,7-16.8,5.5-19.3-3.3L582,99.2
				l-5.7,1.5l-8.1,2.1c-13.2,3.5-21,17-17.5,30.2l0,0c3.5,13.2,17,21,30.2,17.5l50.4-13.4l50.4-13.4
				C694.8,120.3,702.7,106.8,699.2,93.7z"/>
			<polygon class="st0" points="644.8,82.5 598.3,94.9 644.8,82.5 			"/>
			<polygon class="st4" points="644.8,82.5 598.3,94.9 644.8,82.5 			"/>
			<path class="st2" d="M585.9,111.8c2.4,8.8,11.8,10.3,19.3,3.3l39.6-32.6l-46.6,12.3L582,99.2L585.9,111.8z"/>
		</g>
	</g>
	<g>
		<path class="st0" d="M51.5,62.4v12.1H0.9V9.3h49.4v12.1H15.9v14.2h30.3v11.8H15.9v15.1H51.5z"/>
		<path class="st0" d="M111.9,45.8v28.7H97.4V48.1c0-8.1-3.7-11.8-10.2-11.8c-7,0-12,4.3-12,13.5v24.8H60.6V24.4h13.9v5.9
			c3.9-4.3,9.8-6.6,16.6-6.6C103,23.6,111.9,30.5,111.9,45.8z"/>
		<path class="st0" d="M174.9,5.3v69.2H161v-5.8c-3.6,4.4-9,6.5-15.7,6.5c-14.2,0-25.1-10.1-25.1-25.8c0-15.8,10.9-25.8,25.1-25.8
			c6.2,0,11.4,2,15,6.1V5.3H174.9z M160.6,49.5c0-8.7-5.6-13.9-12.8-13.9c-7.3,0-12.9,5.2-12.9,13.9s5.6,13.9,12.9,13.9
			C155,63.4,160.6,58.1,160.6,49.5z"/>
		<path class="st0" d="M235.3,53.6h-38c1.4,6.3,6.7,10.1,14.4,10.1c5.3,0,9.1-1.6,12.6-4.9l7.7,8.4c-4.7,5.3-11.7,8.1-20.7,8.1
			c-17.4,0-28.6-10.9-28.6-25.8c0-15,11.5-25.8,26.8-25.8c14.7,0,26.1,9.9,26.1,26C235.6,50.8,235.4,52.4,235.3,53.6z M197.2,45.1
			h24.7c-1-6.3-5.8-10.4-12.3-10.4C203,34.6,198.2,38.6,197.2,45.1z"/>
		<path class="st0" d="M286.5,45.9v28.6h-13.6v-6.3c-2.7,4.6-7.9,7-15.3,7c-11.8,0-18.8-6.5-18.8-15.2c0-8.9,6.3-15,21.6-15h11.6
			c0-6.3-3.7-9.9-11.6-9.9c-5.3,0-10.8,1.8-14.5,4.7l-5.2-10.2c5.5-3.9,13.6-6.1,21.6-6.1C277.6,23.6,286.5,30.7,286.5,45.9z
			 M271.9,58.7v-5.1h-10c-6.8,0-9,2.5-9,5.9c0,3.6,3.1,6.1,8.2,6.1C266,65.5,270.2,63.3,271.9,58.7z"/>
		<path class="st0" d="M346.6,24.4l-21.2,50.2h-15l-21.1-50.2h15l13.9,34.1l14.4-34.1H346.6z"/>
		<path class="st0" d="M345.6,49.5c0-15.1,11.7-25.8,27.6-25.8s27.5,10.7,27.5,25.8c0,15.1-11.6,25.8-27.5,25.8
			S345.6,64.6,345.6,49.5z M386,49.5c0-8.7-5.5-13.9-12.8-13.9c-7.3,0-12.9,5.2-12.9,13.9s5.6,13.9,12.9,13.9
			C380.5,63.4,386,58.1,386,49.5z"/>
		<path class="st0" d="M459.1,24.4v50.2h-13.8v-6c-3.8,4.4-9.4,6.7-15.6,6.7c-12.6,0-21.5-7.1-21.5-22.6V24.4h14.6v26.2
			c0,8.4,3.7,12.1,10.2,12.1c6.7,0,11.6-4.3,11.6-13.5V24.4H459.1z"/>
		<path class="st0" d="M502,23.6v13.4c-1.2-0.1-2.1-0.2-3.3-0.2c-8,0-13.3,4.4-13.3,14v23.7h-14.6V24.4h13.9V31
			C488.2,26.1,494.2,23.6,502,23.6z"/>
	</g>
	<g>
		<path class="st0" d="M0,109.9h17.1c13.4,0,22.5,8.6,22.5,21s-9,21-22.5,21H0V109.9z M16.8,148c11.1,0,18.3-7.1,18.3-17.1
			c0-10.1-7.2-17.1-18.3-17.1H4.4V148H16.8z"/>
		<path class="st0" d="M75.4,137.4H49.1c0.5,6.6,5.5,11,12.4,11c3.8,0,7.2-1.4,9.6-4.1l2.4,2.8c-2.8,3.4-7.2,5.2-12.2,5.2
			c-9.8,0-16.5-6.7-16.5-16.1c0-9.3,6.5-16,15.4-16c8.9,0,15.3,6.5,15.3,16C75.5,136.4,75.4,136.9,75.4,137.4z M49.1,134.2h22.3
			c-0.5-6.2-5-10.5-11.2-10.5C54.1,123.7,49.6,128.1,49.1,134.2z"/>
		<path class="st0" d="M79.2,148.2l1.9-3.4c2.5,2,6.8,3.5,11.2,3.5c6,0,8.4-2,8.4-5.2c0-8.2-20.4-1.7-20.4-14.2c0-5.2,4.4-9,12.5-9
			c4.1,0,8.5,1.1,11.1,2.9l-1.9,3.4c-2.8-1.9-6-2.7-9.3-2.7c-5.7,0-8.2,2.2-8.2,5.2c0,8.5,20.4,2.1,20.4,14.2c0,5.5-4.8,9-13,9
			C86.8,152.1,81.8,150.5,79.2,148.2z"/>
		<path class="st0" d="M111.3,110.4c0-1.6,1.4-3,3.1-3s3.1,1.3,3.1,2.9c0,1.7-1.3,3.1-3.1,3.1C112.7,113.4,111.3,112.1,111.3,110.4z
			 M112.3,120.3h4.3v31.5h-4.3V120.3z"/>
		<path class="st0" d="M156.9,120.3V148c0,10.8-5.3,15.8-15.8,15.8c-5.8,0-11.4-1.7-14.7-4.9l2.2-3.2c3,2.7,7.5,4.3,12.4,4.3
			c8,0,11.6-3.7,11.6-11.4v-4c-2.6,4-7.1,6.1-12.3,6.1c-9,0-15.8-6.3-15.8-15.3s6.8-15.2,15.8-15.2c5.3,0,9.8,2.2,12.5,6.3v-6H156.9
			z M152.8,135.3c0-6.8-5-11.5-12-11.5c-6.9,0-11.9,4.7-11.9,11.5s5,11.6,11.9,11.6C147.8,146.9,152.8,142.1,152.8,135.3z"/>
		<path class="st0" d="M197.2,133.6v18.3H193V134c0-6.6-3.5-10.1-9.5-10.1c-6.8,0-11,4.2-11,11.4v16.5h-4.3v-31.5h4.1v5.8
			c2.3-3.8,6.5-6,12-6C192,120.1,197.2,124.5,197.2,133.6z"/>
		<path class="st0" d="M220.2,146.7l1.7-3.4c3,2.9,8.3,5.1,13.8,5.1c7.8,0,11.3-3.3,11.3-7.4c0-11.5-25.8-4.4-25.8-19.9
			c0-6.2,4.8-11.5,15.5-11.5c4.7,0,9.6,1.4,13,3.7l-1.5,3.5c-3.6-2.3-7.8-3.5-11.5-3.5c-7.7,0-11.1,3.4-11.1,7.6
			c0,11.5,25.8,4.6,25.8,19.8c0,6.2-4.9,11.4-15.6,11.4C229.5,152.2,223.3,150,220.2,146.7z"/>
		<path class="st0" d="M285.4,120.3l-15.8,35.3c-2.6,6.2-6,8.1-10.5,8.1c-2.9,0-5.8-1-7.7-2.9l2-3.2c1.6,1.6,3.5,2.4,5.8,2.4
			c2.8,0,4.7-1.3,6.5-5.3l1.4-3.1l-14.1-31.4h4.4l11.9,26.8l11.9-26.8H285.4z"/>
		<path class="st0" d="M286.1,148.2l1.9-3.4c2.5,2,6.8,3.5,11.2,3.5c6,0,8.4-2,8.4-5.2c0-8.2-20.4-1.7-20.4-14.2c0-5.2,4.4-9,12.5-9
			c4.1,0,8.5,1.1,11.1,2.9l-1.9,3.4c-2.8-1.9-6-2.7-9.3-2.7c-5.7,0-8.2,2.2-8.2,5.2c0,8.5,20.4,2.1,20.4,14.2c0,5.5-4.8,9-13,9
			C293.7,152.1,288.7,150.5,286.1,148.2z"/>
		<path class="st0" d="M335.7,149.9c-1.7,1.5-4.2,2.2-6.6,2.2c-5.9,0-9.2-3.4-9.2-9.2v-19h-5.6v-3.6h5.6v-6.9h4.3v6.9h9.6v3.6h-9.6
			v18.8c0,3.7,1.9,5.8,5.5,5.8c1.7,0,3.5-0.5,4.7-1.6L335.7,149.9z"/>
		<path class="st0" d="M369.2,137.4h-26.4c0.5,6.6,5.5,11,12.4,11c3.8,0,7.2-1.4,9.6-4.1l2.4,2.8c-2.8,3.4-7.2,5.2-12.2,5.2
			c-9.8,0-16.5-6.7-16.5-16.1c0-9.3,6.5-16,15.4-16c8.9,0,15.3,6.5,15.3,16C369.2,136.4,369.2,136.9,369.2,137.4z M342.8,134.2h22.3
			c-0.5-6.2-5-10.5-11.2-10.5C347.8,123.7,343.3,128.1,342.8,134.2z"/>
		<path class="st0" d="M429.3,133.6v18.3H425V134c0-6.6-3.4-10.1-9-10.1c-6.5,0-10.5,4.2-10.5,11.4v16.5h-4.3V134
			c0-6.6-3.4-10.1-9.1-10.1c-6.4,0-10.5,4.2-10.5,11.4v16.5h-4.3v-31.5h4.1v5.8c2.2-3.8,6.3-6,11.6-6c5.2,0,9.3,2.2,11.2,6.6
			c2.3-4.1,6.8-6.6,12.5-6.6C424.3,120.1,429.3,124.5,429.3,133.6z"/>
	</g>
</g>
</svg>
