<?xml version="1.0" encoding="utf-8"?>
<!-- Generator: Adobe Illustrator 27.9.0, SVG Export Plug-In . SVG Version: 6.00 Build 0)  -->
<svg version="1.1" id="Layer_1" xmlns="http://www.w3.org/2000/svg" xmlns:xlink="http://www.w3.org/1999/xlink" x="0px" y="0px"
	 viewBox="0 0 1059.7 246" style="enable-background:new 0 0 1059.7 246;" xml:space="preserve">
<style type="text/css">
	.st0{fill:#000A14;}
	.st1{fill:#FF0070;}
	.st2{fill:#80A0F8;}
	.st3{fill:#002BFE;}
	.st4{fill:#FFFFFF;}
	.st5{fill:#002470;}
</style>
<g>
	<g>
		<path class="st0" d="M997.2,75.8L866,7.5c-12.6-5.6-26.1,6.1-22.4,19.4l43.5,140.6c3.7,13.3,17.9,15.6,29.2,5l85.1-70.1
			C1012.1,92.6,1006.6,80,997.2,75.8z"/>
		<circle class="st1" cx="1033.2" cy="24.6" r="24.6"/>
		<g>
			<polygon class="st2" points="833.7,199.5 833.7,199.5 833.7,199.5 833.7,199.5 			"/>
			<polygon class="st2" points="905.7,141.7 872.4,150.6 881.1,148.3 			"/>
			<polygon class="st2" points="879.4,226 955.7,205.8 879.4,226 			"/>
			<path class="st3" d="M887.1,167.4l-5.9-19.2l-8.7,2.3l-12.2,3.2c-19.9,5.3-31.8,25.7-26.5,45.7l0,0c5.3,19.9,25.7,31.8,45.7,26.5
				l76.3-20.2l76.3-20.2c19.9-5.3,31.8-25.7,26.5-45.7v0c-5.3-19.9-25.7-31.8-45.7-26.5l-36.6,9.7"/>
			<polygon class="st4" points="976.2,123.1 905.7,141.7 976.2,123.1 			"/>
			<polygon class="st5" points="976.2,123.1 905.7,141.7 976.2,123.1 			"/>
			<path class="st2" d="M887.1,167.4c3.7,13.3,17.9,15.6,29.2,5l60-49.4l-70.5,18.7l-24.6,6.5L887.1,167.4z"/>
		</g>
	</g>
	<g>
		<path class="st0" d="M77.9,92.6V111H1.4V12.1h74.7v18.4h-52v21.5H70v17.8H24.1v22.9H77.9z"/>
		<path class="st0" d="M169.4,67.5V111h-22V70.9c0-12.3-5.6-17.9-15.4-17.9c-10.6,0-18.2,6.5-18.2,20.5V111h-22V35h21v8.9
			c5.9-6.5,14.8-10,25.1-10C155.9,33.9,169.4,44.3,169.4,67.5z"/>
		<path class="st0" d="M264.8,6.2V111h-21v-8.8c-5.5,6.6-13.6,9.9-23.7,9.9c-21.5,0-38-15.3-38-39.1c0-23.9,16.5-39.1,38-39.1
			c9.3,0,17.2,3,22.7,9.2V6.2H264.8z M243.2,73c0-13.1-8.5-21-19.3-21c-11,0-19.5,7.9-19.5,21s8.5,21,19.5,21
			C234.7,94,243.2,86.1,243.2,73z"/>
		<path class="st0" d="M356.3,79.2h-57.5c2.1,9.5,10.2,15.3,21.7,15.3c8,0,13.8-2.4,19.1-7.3l11.7,12.7c-7.1,8-17.7,12.3-31.4,12.3
			c-26.3,0-43.4-16.5-43.4-39.1c0-22.7,17.4-39.1,40.5-39.1c22.3,0,39.5,15,39.5,39.4C356.7,75,356.4,77.4,356.3,79.2z M298.5,66.4
			h37.4c-1.6-9.6-8.8-15.8-18.6-15.8C307.3,50.5,300.1,56.6,298.5,66.4z"/>
		<path class="st0" d="M433.7,67.6V111h-20.6v-9.5c-4.1,6.9-12,10.6-23.2,10.6c-17.8,0-28.4-9.9-28.4-23c0-13.4,9.5-22.7,32.6-22.7
			h17.5c0-9.5-5.6-15-17.5-15c-8,0-16.4,2.7-21.9,7.1L364.3,43c8.3-5.9,20.6-9.2,32.8-9.2C420.3,33.9,433.7,44.6,433.7,67.6z
			 M411.6,87v-7.8h-15.1c-10.3,0-13.6,3.8-13.6,8.9c0,5.5,4.7,9.2,12.4,9.2C402.7,97.3,409.1,93.9,411.6,87z"/>
		<path class="st0" d="M524.8,35l-32.1,76H470l-31.9-76h22.7l21,51.7L503.6,35H524.8z"/>
		<path class="st0" d="M523.2,73c0-22.9,17.7-39.1,41.8-39.1s41.7,16.2,41.7,39.1c0,22.9-17.5,39.1-41.7,39.1S523.2,95.9,523.2,73z
			 M584.4,73c0-13.1-8.3-21-19.3-21s-19.5,7.9-19.5,21S554,94,565,94S584.4,86.1,584.4,73z"/>
		<path class="st0" d="M695.1,35v76h-20.9v-9c-5.8,6.6-14.3,10.2-23.6,10.2c-19.1,0-32.5-10.7-32.5-34.2V35h22v39.7
			c0,12.7,5.6,18.4,15.4,18.4c10.2,0,17.5-6.5,17.5-20.5V35H695.1z"/>
		<path class="st0" d="M759.9,33.9v20.3c-1.8-0.1-3.2-0.3-4.9-0.3c-12.1,0-20.2,6.6-20.2,21.2V111h-22V35h21v10
			C739.1,37.7,748.2,33.9,759.9,33.9z"/>
	</g>
	<g>
		<path class="st0" d="M0,164.5h25.8c20.3,0,34,13.1,34,31.7S46.2,228,25.8,228H0V164.5z M25.5,222.2c16.9,0,27.7-10.7,27.7-25.9
			c0-15.2-10.9-25.9-27.7-25.9H6.7v51.9H25.5z"/>
		<path class="st0" d="M114.2,206.1H74.3c0.7,10,8.3,16.6,18.8,16.6c5.8,0,11-2.1,14.6-6.3l3.6,4.2c-4.3,5.1-10.9,7.8-18.4,7.8
			c-14.9,0-25-10.2-25-24.3c0-14.1,9.9-24.2,23.3-24.2c13.4,0,23.1,9.9,23.1,24.2C114.3,204.7,114.2,205.4,114.2,206.1z M74.3,201.3
			h33.8c-0.8-9.3-7.6-15.9-17-15.9C81.9,185.4,75.1,192,74.3,201.3z"/>
		<path class="st0" d="M119.9,222.5l2.9-5.1c3.8,3,10.2,5.3,17,5.3c9.1,0,12.8-3.1,12.8-7.8c0-12.4-30.9-2.6-30.9-21.5
			c0-7.8,6.7-13.6,18.9-13.6c6.2,0,12.9,1.7,16.9,4.4l-2.8,5.2c-4.2-2.9-9.2-4.1-14.1-4.1c-8.6,0-12.4,3.4-12.4,7.9
			c0,12.9,30.9,3.2,30.9,21.5c0,8.3-7.3,13.6-19.7,13.6C131.4,228.4,123.8,225.9,119.9,222.5z"/>
		<path class="st0" d="M168.5,165.2c0-2.4,2.1-4.5,4.7-4.5s4.7,2,4.7,4.4c0,2.6-2,4.7-4.7,4.7C170.6,169.8,168.5,167.8,168.5,165.2z
			 M169.9,180.3h6.4V228h-6.4V180.3z"/>
		<path class="st0" d="M237.6,180.3v41.9c0,16.4-8.1,23.8-23.8,23.8c-8.7,0-17.2-2.6-22.2-7.3l3.3-4.9c4.5,4.1,11.4,6.5,18.8,6.5
			c12.1,0,17.6-5.5,17.6-17.3v-6.1c-4,6.1-10.8,9.2-18.6,9.2c-13.6,0-23.9-9.5-23.9-23.2c0-13.7,10.3-23,23.9-23
			c8,0,14.9,3.3,18.9,9.5v-9.2H237.6z M231.3,202.9c0-10.3-7.6-17.4-18.1-17.4c-10.5,0-18,7.1-18,17.4c0,10.3,7.5,17.5,18,17.5
			C223.7,220.4,231.3,213.3,231.3,202.9z"/>
		<path class="st0" d="M298.6,200.3V228h-6.4v-27c0-10.1-5.3-15.2-14.3-15.2c-10.2,0-16.7,6.3-16.7,17.2v25h-6.4v-47.7h6.2v8.8
			c3.4-5.8,9.9-9.2,18.1-9.2C290.6,179.9,298.6,186.6,298.6,200.3z"/>
		<path class="st0" d="M333.3,220.3l2.6-5.2c4.5,4.4,12.6,7.7,20.9,7.7c11.9,0,17-5,17-11.2c0-17.4-39.1-6.7-39.1-30.2
			c0-9.3,7.3-17.4,23.4-17.4c7.2,0,14.6,2.1,19.7,5.6l-2.3,5.3c-5.4-3.5-11.8-5.3-17.4-5.3c-11.6,0-16.8,5.2-16.8,11.5
			c0,17.4,39.1,6.9,39.1,30c0,9.3-7.4,17.3-23.7,17.3C347.4,228.5,338.1,225.2,333.3,220.3z"/>
		<path class="st0" d="M432.1,180.3l-23.8,53.4c-4,9.3-9.1,12.3-15.9,12.3c-4.4,0-8.7-1.5-11.6-4.4l3-4.8c2.4,2.4,5.3,3.6,8.7,3.6
			c4.3,0,7.2-2,9.9-8l2.1-4.6l-21.3-47.6h6.7l18,40.5l18-40.5H432.1z"/>
		<path class="st0" d="M433.1,222.5l2.9-5.1c3.8,3,10.2,5.3,17,5.3c9.1,0,12.8-3.1,12.8-7.8c0-12.4-30.9-2.6-30.9-21.5
			c0-7.8,6.7-13.6,18.9-13.6c6.2,0,12.9,1.7,16.9,4.4l-2.8,5.2c-4.2-2.9-9.2-4.1-14.1-4.1c-8.6,0-12.4,3.4-12.4,7.9
			c0,12.9,30.9,3.2,30.9,21.5c0,8.3-7.3,13.6-19.7,13.6C444.6,228.4,437,225.9,433.1,222.5z"/>
		<path class="st0" d="M508.3,225.1c-2.5,2.3-6.3,3.4-10.1,3.4c-9,0-14-5.1-14-13.9v-28.8h-8.5v-5.4h8.5v-10.4h6.4v10.4h14.5v5.4
			h-14.5v28.5c0,5.6,2.9,8.7,8.3,8.7c2.6,0,5.3-0.8,7.1-2.4L508.3,225.1z"/>
		<path class="st0" d="M558.9,206.1H519c0.7,10,8.3,16.6,18.8,16.6c5.8,0,11-2.1,14.6-6.3l3.6,4.2c-4.3,5.1-10.9,7.8-18.4,7.8
			c-14.9,0-25-10.2-25-24.3c0-14.1,9.9-24.2,23.3-24.2c13.4,0,23.1,9.9,23.1,24.2C559,204.7,558.9,205.4,558.9,206.1z M519,201.3
			h33.8c-0.8-9.3-7.6-15.9-17-15.9C526.6,185.4,519.8,192,519,201.3z"/>
		<path class="st0" d="M649.9,200.3V228h-6.4v-27c0-10.1-5.1-15.2-13.7-15.2c-9.8,0-16,6.3-16,17.2v25h-6.4v-27
			c0-10.1-5.1-15.2-13.8-15.2c-9.7,0-16,6.3-16,17.2v25h-6.4v-47.7h6.2v8.7c3.4-5.7,9.5-9.1,17.5-9.1c7.9,0,14.1,3.4,17,10.1
			c3.4-6.2,10.2-10.1,18.9-10.1C642.3,179.9,649.9,186.6,649.9,200.3z"/>
	</g>
</g>
</svg>
