<?xml version="1.0" encoding="utf-8"?>
<!-- Generator: Adobe Illustrator 27.9.0, SVG Export Plug-In . SVG Version: 6.00 Build 0)  -->
<svg version="1.1" id="Layer_1" xmlns="http://www.w3.org/2000/svg" xmlns:xlink="http://www.w3.org/1999/xlink" x="0px" y="0px"
	 viewBox="0 0 16 16" style="enable-background:new 0 0 16 16;" xml:space="preserve">
<style type="text/css">
	.st0{fill:#000A14;}
	.st1{fill:#FF0070;}
	.st2{fill:#80A0F8;}
	.st3{fill:#002BFE;}
	.st4{fill:#FFFFFF;}
	.st5{fill:#002470;}
</style>
<g>
	<path class="st0" d="M11.6,5.3L2.4,0.5C1.5,0.1,0.5,1,0.8,1.9l3.1,9.9c0.3,0.9,1.3,1.1,2.1,0.4l6-4.9C12.6,6.5,12.3,5.6,11.6,5.3z"
		/>
	<circle class="st1" cx="14.1" cy="1.7" r="1.7"/>
	<g>
		<polygon class="st2" points="0.1,14 0.1,14 0.1,14 0.1,14 		"/>
		<polygon class="st2" points="5.2,10 2.8,10.6 3.4,10.4 		"/>
		<polygon class="st2" points="3.3,15.9 8.7,14.5 3.3,15.9 		"/>
		<path class="st3" d="M15.9,9.8L15.9,9.8c-0.4-1.4-1.8-2.2-3.2-1.9l-2.6,0.7l-4.2,3.5c-0.8,0.7-1.8,0.6-2.1-0.4l-0.4-1.3l-0.6,0.2
			L2,10.8c-1.4,0.4-2.2,1.8-1.9,3.2l0,0c0.4,1.4,1.8,2.2,3.2,1.9l5.4-1.4l5.4-1.4C15.4,12.7,16.3,11.3,15.9,9.8z"/>
		<polygon class="st4" points="10.1,8.7 5.2,10 10.1,8.7 		"/>
		<polygon class="st5" points="10.1,8.7 5.2,10 10.1,8.7 		"/>
		<path class="st2" d="M3.8,11.8c0.3,0.9,1.3,1.1,2.1,0.4l4.2-3.5l-5,1.3l-1.7,0.5L3.8,11.8z"/>
	</g>
</g>
</svg>
