<svg xmlns="http://www.w3.org/2000/svg" viewBox="0 0 160 30"><path fill="#fff" d="M.1.5l.4 1.3v26.4l-.5.9h9.9c6.9 0 12.7-5.6 12.7-15.1C22.6 7.1 19.2.9 12 .4L.1.5zm5.5 2.8h3.2C13.6 3.3 17 6.1 17 14c0 9.7-4 11.7-8.6 11.7H5.6V3.3zm48.9-.2h6.1l.9.7 1-3.2H42.2L41.5 4l1.6-.7h5.8v25.1l-.4 1h6.6l-.4-1V3.1h-.2zm46 21.4c-1.5 1.8-3.4 2.7-5.5 2.7-5.2 0-8-4.6-8-11.8 0-6.2 2.2-12.7 7.7-12.7 2.2 0 4.3 1.3 5.5 3.7h.4V2.1C98.7.8 96.8.3 94.5.3c-7.2 0-13.3 4.9-13.3 15.8 0 8.6 5.5 13.6 12.5 13.6 2.2 0 4.6 0 6.6-1.3v-4.1.2zm26.9-9.7c0-6.5-2.8-14.5-12.4-14.5-8.3 0-13.1 6.3-13.1 14.6 0 9.4 5 14.8 12.4 14.8 8.1 0 13.1-6.7 13.1-14.9m-12.6-12c5 0 6.9 5.8 6.9 11.2 0 6.9-2.2 13.3-7.4 13.3-5 0-6.9-5.6-6.9-10.9.1-9.7 2.9-13.6 7.4-13.6M144.2 21L135.8.5h-4.6l.4.9-1.9 26.4-.4 1.3h3.5l1.3-17.9 8 17.9h1.9l7.8-17.7 1.5 17.7h6.6l-.4-1.2L157 1.2l.1-.7h-4.6L144.2 21zm-107-.3l2.8 8.6h6.5l-.7-.7-9.9-28h-5.6l.6 1.6-9.2 26.1-.4.7h4l2.8-8.6h9.2v.3zm-8-3.4l3.4-10 3.5 10h-6.9zm43.9 3.4l2.8 8.6h6.5l-.7-.9L71.7.5h-5.6l.6 1.6-9.2 26.1-.4.7h4l2.8-8.6h9.2v.4zm-8.2-3.4l3.4-10 3.5 10h-6.9z"/></svg>